<?xml version="1.0" standalone="no"?>
<!DOCTYPE svg PUBLIC "-//W3C//DTD SVG 20010904//EN"
 "http://www.w3.org/TR/2001/REC-SVG-20010904/DTD/svg10.dtd">
<svg version="1.0" xmlns="http://www.w3.org/2000/svg"
 width="700.000000pt" height="700.000000pt" viewBox="0 0 700.000000 700.000000"
 preserveAspectRatio="xMidYMid meet">
<metadata>
Created by potrace 1.14, written by Peter Selinger 2001-2017
</metadata>
<g transform="translate(0.000000,700.000000) scale(0.100000,-0.100000)"
fill="#000000" stroke="none">
<path d="M6637 6994 c-1 -1 -42 -5 -92 -9 -49 -3 -108 -8 -130 -10 -91 -10
-141 -15 -160 -19 -11 -2 -46 -7 -79 -11 -32 -3 -68 -8 -80 -11 -11 -2 -37 -5
-56 -8 -19 -2 -46 -7 -60 -10 -14 -3 -42 -8 -62 -11 -21 -2 -57 -9 -80 -14
-24 -6 -65 -13 -93 -17 -27 -3 -53 -8 -58 -11 -4 -2 -20 -7 -35 -9 -328 -59
-909 -237 -1260 -388 -177 -76 -445 -206 -547 -266 -166 -96 -231 -135 -235
-140 -3 -3 -25 -18 -50 -32 -110 -64 -387 -272 -542 -409 -119 -104 -307 -295
-430 -437 -26 -30 -29 -30 -85 -24 -79 10 -444 9 -521 -1 -53 -6 -121 -19
-276 -52 -51 -11 -142 -40 -241 -77 -239 -88 -477 -226 -705 -407 -103 -82
-346 -319 -427 -416 -132 -158 -284 -377 -307 -442 -25 -72 -5 -162 50 -216
54 -54 87 -64 234 -72 52 -3 129 -8 170 -10 41 -2 116 -7 165 -10 50 -4 119
-8 155 -10 217 -13 253 -15 495 -31 55 -4 108 -7 117 -6 9 0 -64 -80 -163
-179 -99 -100 -186 -193 -194 -209 -21 -41 -27 -105 -13 -158 10 -39 28 -64
115 -153 l103 -106 -56 -59 c-64 -69 -206 -255 -254 -334 -198 -324 -326 -679
-394 -1091 -59 -360 -57 -464 9 -547 51 -64 148 -86 295 -68 14 2 57 7 95 10
79 8 256 35 265 41 3 2 24 6 47 10 38 5 89 17 198 47 201 54 445 149 615 240
172 92 384 242 489 347 23 23 44 41 49 41 4 0 48 -41 97 -91 50 -50 107 -99
129 -110 51 -27 131 -27 184 0 21 11 118 99 216 196 160 161 176 174 177 148
1 -15 2 -41 4 -58 2 -16 6 -84 10 -150 3 -66 8 -142 10 -170 4 -61 15 -233 20
-335 3 -41 7 -106 10 -145 3 -38 7 -117 10 -175 7 -137 13 -186 29 -225 40
-95 164 -147 263 -111 34 12 175 98 228 138 289 220 469 393 651 623 299 378
478 811 521 1260 12 120 4 470 -11 494 -7 11 2 20 94 100 173 152 408 402 545
581 27 36 53 70 57 75 72 91 229 330 316 480 272 473 500 1059 641 1645 37
154 86 392 101 485 6 39 13 84 16 100 3 17 7 41 9 55 34 201 48 361 52 580 l5
245 -29 37 c-15 21 -50 49 -76 62 -43 22 -60 24 -153 23 -58 -1 -106 -2 -107
-3z"/>
</g>
</svg>
